#!OML:ASF H:\Terrain\Patient Classification 1\Animal1\Tuesday\Animal1.ASF
:FULLY-SPECIFIED
:DEGREES
2757
root 8.60215 16.4538 -21.5479 -371.267 -67.8832 22.1028
lowerback -3.3411 -1.75452 -3.20071
upperback -7.57653 -2.6393 -1.5139
thorax -5.93528 -1.27158 0.269711
lowerneck 3.99511 -12.7271 -9.74753
upperneck -12.0412 -16.6472 14.8205
head -2.07932 -8.64564 6.23109
rclavicle -3.8763e-014 -1.39149e-014
rhumerus -28.8129 18.5103 -98.028
rradius 102.894
rwrist 13.2898
rhand 52.9175 -13.2483
rfingers 7.12502
rthumb 71.7333 -362.474
lclavicle -3.8763e-014 -1.39149e-014
lhumerus -37.6415 -24.0143 106.882
lradius 105.238
lwrist -51.3901
lhand -127.683 -476.115
lfingers 7.12502
lthumb 71.3893 -305.413
rfemur -16.8382 28.23 15.5855
rtibia 19.7518
rfoot -3.08433 -24.2603
rtoes -1.69143
lfemur -8.54865 -16.2594 -12.5318
ltibia 28.9331
lfoot 24.3745 -3.32055
ltoes 36.8915
2758
root 8.60184 16.4524 -21.5458 -371.62 -67.9198 22.4808
lowerback -3.34144 -1.77341 -3.3906
upperback -7.57991 -2.66559 -1.5009
thorax -5.93058 -1.27374 0.389149
lowerneck 4.03127 -12.6898 -9.85012
upperneck -11.9662 -16.6107 14.8145
head -2.05932 -8.62308 6.24349
rclavicle 4.47266e-014 -3.18055e-015
rhumerus -28.973 18.5919 -97.9884
rradius 103.051
rwrist 13.1275
rhand 52.7096 -13.493
rfingers 7.12502
rthumb 71.6155 -363.237
lclavicle 4.47266e-014 -3.18055e-015
lhumerus -37.6187 -23.8617 106.875
lradius 105.191
lwrist -51.4062
lhand -127.664 -476.333
lfingers 7.12502
lthumb 71.4004 -305.678
rfemur -16.8602 28.7502 15.3702
rtibia 19.7427
rfoot -2.98234 -24.6734
rtoes -2.46906
lfemur -8.51433 -16.3148 -12.6752
ltibia 28.9765
lfoot 24.2587 -3.06696
ltoes 37.6284
2759
root 8.6017 16.448 -21.5417 -371.719 -67.9453 22.5517
lowerback -3.30106 -1.79093 -3.44437
upperback -7.58807 -2.68967 -1.4637
thorax -5.95781 -1.28076 0.459623
lowerneck 4.07698 -12.6482 -10.0087
upperneck -11.868 -16.5721 14.8462
head -2.02584 -8.59922 6.27384
rclavicle -2.33572e-015 2.78299e-015
rhumerus -29.0479 18.6699 -97.9809
rradius 103.05
rwrist 13.0485
rhand 52.4451 -13.391
rfingers 7.12502
rthumb 71.4636 -363.783
lclavicle -2.33572e-015 2.78299e-015
lhumerus -37.6167 -23.7357 106.923
lradius 105.2
lwrist -51.401
lhand -127.699 -476.064
lfingers 7.12502
lthumb 71.3798 -305.323
rfemur -16.7635 29.001 15.3344
rtibia 19.6366
rfoot -2.28843 -24.9757
rtoes -4.3895
lfemur -8.4689 -16.2096 -12.7097
ltibia 29.028
lfoot 24.2047 -3.13047
ltoes 38.2122
2760
root 8.59962 16.4462 -21.5325 -371.172 -68.0656 21.8733
lowerback -3.25277 -1.7972 -3.02487
upperback -7.57983 -2.69431 -1.42805
thorax -5.98984 -1.3046 0.26532
lowerneck 4.07934 -12.5512 -10.2125
upperneck -11.6945 -16.4579 14.9889
head -1.95767 -8.54031 6.33792
rclavicle 4.05024e-014 1.43125e-014
rhumerus -29.1137 18.7719 -98.1553
rradius 102.931
rwrist 12.9329
rhand 52.5414 -13.1504
rfingers 7.12502
rthumb 71.5192 -363.307
lclavicle 4.05024e-014 1.43125e-014
lhumerus -37.6222 -23.6501 106.846
lradius 105.259
lwrist -51.3242
lhand -127.681 -475.836
lfingers 7.12502
lthumb 71.3904 -305.139
rfemur -16.6092 29.1579 15.6531
rtibia 19.5392
rfoot -1.64209 -25.3833
rtoes -6.203
lfemur -8.34603 -16.206 -12.493
ltibia 29.0472
lfoot 24.0984 -3.355
ltoes 38.2019
2761
root 8.59341 16.4485 -21.5185 -370.958 -68.2663 21.5724
lowerback -3.35495 -1.76011 -2.65507
upperback -7.55514 -2.63886 -1.45935
thorax -5.92168 -1.30026 0.022249
lowerneck 4.11272 -12.4436 -10.2517
upperneck -11.5078 -16.3312 14.9451
head -1.92488 -8.47261 6.32869
rclavicle 3.19546e-014 1.39149e-014
rhumerus -29.1251 18.8669 -98.383
rradius 102.715
rwrist 12.7027
rhand 52.651 -13.1792
rfingers 7.12502
rthumb 71.5821 -363.067
lclavicle 3.19546e-014 1.39149e-014
lhumerus -37.6577 -23.5861 106.781
lradius 105.331
lwrist -51.1937
lhand -127.695 -475.78
lfingers 7.12502
lthumb 71.3821 -305.049
rfemur -16.5112 29.2819 15.8029
rtibia 19.4531
rfoot -1.79723 -25.3654
rtoes -5.6437
lfemur -8.17985 -16.4391 -12.459
ltibia 29.0604
lfoot 23.9415 -3.0236
ltoes 38.7763
2762
root 8.58889 16.4477 -21.5085 -371.333 -68.3479 21.9879
lowerback -3.51622 -1.70845 -2.67935
upperback -7.5338 -2.56943 -1.56818
thorax -5.81271 -1.27042 -0.0842859
lowerneck 4.21282 -12.36 -10.101
upperneck -11.4854 -16.2243 14.7888
head -1.97556 -8.41989 6.27435
rclavicle 4.84538e-014 2.38542e-015
rhumerus -29.1106 18.8288 -98.4718
rradius 102.595
rwrist 12.6534
rhand 52.6315 -13.2733
rfingers 7.12502
rthumb 71.571 -363.209
lclavicle 4.84538e-014 2.38542e-015
lhumerus -37.7227 -23.5867 106.793
lradius 105.42
lwrist -51.1097
lhand -127.56 -475.739
lfingers 7.12502
lthumb 71.4607 -305.335
rfemur -16.5091 29.1708 15.6294
rtibia 19.411
rfoot -2.06865 -25.0212
rtoes -4.64556
lfemur -8.12097 -16.465 -12.665
ltibia 29.0382
lfoot 23.9722 -2.74198
ltoes 38.8297
2763
root 8.59216 16.4456 -21.5106 -371.385 -68.3011 22.0851
lowerback -3.48816 -1.73813 -2.75323
upperback -7.50911 -2.61002 -1.59263
thorax -5.80013 -1.28721 -0.0674919
lowerneck 3.92832 -12.1832 -9.88233
upperneck -11.3323 -15.9744 14.4923
head -1.96093 -8.28042 6.1393
rclavicle -7.45443e-016 -1.55052e-014
rhumerus -29.0753 18.8194 -98.5061
rradius 102.599
rwrist 12.8708
rhand 52.2325 -13.1958
rfingers 7.12502
rthumb 71.3397 -364.101
lclavicle -7.45443e-016 -1.55052e-014
lhumerus -37.6619 -23.5618 106.737
lradius 105.492
lwrist -51.0227
lhand -127.402 -475.581
lfingers 7.12502
lthumb 71.5519 -305.564
rfemur -16.5498 29.1125 15.57
rtibia 19.4151
rfoot -2.09118 -25.1813
rtoes -4.80772
lfemur -8.16185 -16.2114 -12.6463
ltibia 28.9611
lfoot 24.1802 -2.73385
ltoes 39.1465
2764
root 8.59595 16.4441 -21.5134 -371.175 -68.281 21.8919
lowerback -3.48657 -1.7883 -2.78066
upperback -7.46746 -2.66961 -1.51657
thorax -5.75045 -1.31249 0.0267082
lowerneck 3.38892 -11.8434 -9.73248
upperneck -10.8116 -15.516 14.1187
head -1.82129 -8.02079 5.96173
rclavicle 1.13307e-014 1.43125e-014
rhumerus -28.9009 18.92 -98.4469
rradius 102.542
rwrist 13.0329
rhand 51.9652 -13.187
rfingers 7.12502
rthumb 71.1817 -364.728
lclavicle 1.13307e-014 1.43125e-014
lhumerus -37.5851 -23.4614 106.734
lradius 105.511
lwrist -50.9567
lhand -127.444 -475.442
lfingers 7.12502
lthumb 71.5278 -305.321
rfemur -16.6045 29.1174 15.626
rtibia 19.4406
rfoot -2.35374 -25.1886
rtoes -4.22102
lfemur -8.19382 -16.1807 -12.5311
ltibia 28.9267
lfoot 24.2219 -2.51986
ltoes 40.0628
2765
root 8.58799 16.4418 -21.4945 -371.096 -68.524 21.6514
lowerback -3.59696 -1.72805 -2.52489
upperback -7.35289 -2.57275 -1.46381
thorax -5.5735 -1.27708 -0.0681164
lowerneck 2.71363 -11.3633 -9.61057
upperneck -9.99359 -14.877 13.7558
head -1.58721 -7.66471 5.77604
rclavicle -1.97294e-014 1.66979e-014
rhumerus -28.6237 19.1046 -98.3548
rradius 102.354
rwrist 13.0469
rhand 52.3157 -13.5312
rfingers 7.12502
rthumb 71.3883 -364.237
lclavicle -1.97294e-014 1.66979e-014
lhumerus -37.6241 -23.3433 106.785
lradius 105.52
lwrist -50.9797
lhand -127.454 -475.279
lfingers 7.12502
lthumb 71.5218 -305.133
rfemur -16.4086 29.1445 15.8046
rtibia 19.381
rfoot -2.46904 -24.6361
rtoes -3.83751
lfemur -7.88123 -16.4313 -12.5805
ltibia 28.907
lfoot 23.9868 -2.07681
ltoes 40.2001
2766
root 8.59821 16.4368 -21.5049 -370.625 -68.4465 21.1751
lowerback -3.45224 -1.79547 -2.51837
upperback -7.36986 -2.66372 -1.37553
thorax -5.66829 -1.31793 0.0263491
lowerneck 1.84907 -10.7527 -9.2963
upperneck -9.10455 -14.0549 13.1536
head -1.3528 -7.20947 5.4889
rclavicle -2.73826e-014 -7.95139e-016
rhumerus -28.4098 19.2205 -98.3647
rradius 102.136
rwrist 13.0887
rhand 52.5026 -13.6774
rfingers 7.12502
rthumb 71.4968 -363.929
lclavicle -2.73826e-014 -7.95139e-016
lhumerus -37.6788 -23.2025 106.78
lradius 105.507
lwrist -50.9906
lhand -127.417 -475.37
lfingers 7.12502
lthumb 71.5429 -305.314
rfemur -16.4337 29.0787 16.0016
rtibia 19.3317
rfoot -2.06562 -24.4942
rtoes -4.26671
lfemur -8.02491 -16.2843 -12.278
ltibia 28.9234
lfoot 24.2409 -2.41249
ltoes 40.0445
2767
root 8.59084 16.4388 -21.4903 -371.052 -68.618 21.42
lowerback -3.41975 -1.71379 -2.4274
upperback -7.29453 -2.55278 -1.43342
thorax -5.61419 -1.26903 -0.0859904
lowerneck 0.954353 -9.96849 -8.97796
upperneck -8.0472 -13.0111 12.4471
head -1.08792 -6.6397 5.17497
rclavicle 4.79071e-014 5.96354e-015
rhumerus -28.4059 19.182 -98.3963
rradius 102.06
rwrist 13.1332
rhand 52.4494 -13.3162
rfingers 7.12502
rthumb 71.4661 -363.698
lclavicle 4.79071e-014 5.96354e-015
lhumerus -37.7856 -23.1179 106.772
lradius 105.448
lwrist -50.9813
lhand -127.283 -475.696
lfingers 7.12502
lthumb 71.6199 -305.971
rfemur -16.1511 29.091 16.038
rtibia 19.2784
rfoot -1.64702 -24.3413
rtoes -5.16515
lfemur -7.67714 -16.4507 -12.4979
ltibia 28.8968
lfoot 24.0826 -1.99607
ltoes 39.9718
2768
root 8.59827 16.4388 -21.4999 -371.006 -68.4758 21.5023
lowerback -3.37886 -1.74367 -2.57002
upperback -7.38902 -2.60189 -1.43742
thorax -5.73269 -1.28576 -0.00690647
lowerneck 0.198857 -9.01247 -8.864
upperneck -6.99126 -11.7437 11.9385
head -0.831423 -5.96527 4.97095
rclavicle -4.29872e-014 -1.98785e-014
rhumerus -28.4996 19.123 -98.3995
rradius 102.064
rwrist 13.2041
rhand 52.5232 -12.9837
rfingers 7.12502
rthumb 71.5087 -363.186
lclavicle -4.29872e-014 -1.98785e-014
lhumerus -37.9693 -23.1272 106.771
lradius 105.396
lwrist -50.9015
lhand -127.096 -475.617
lfingers 7.12502
lthumb 71.7255 -306.356
rfemur -16.2962 29.0272 15.9325
rtibia 19.2721
rfoot -1.29836 -24.4168
rtoes -5.62459
lfemur -7.91267 -16.3228 -12.4053
ltibia 28.8828
lfoot 24.3219 -2.0888
ltoes 39.5251
